<svg xmlns="http://www.w3.org/2000/svg" xmlns:xlink="http://www.w3.org/1999/xlink" width="500" zoomAndPan="magnify" viewBox="0 0 375 374.999991" height="500" preserveAspectRatio="xMidYMid meet" version="1.0"><defs><g/><clipPath id="1391739a25"><path d="M 34.050781 51.125 L 340.800781 51.125 L 340.800781 237.875 L 34.050781 237.875 Z M 34.050781 51.125 " clip-rule="nonzero"/></clipPath></defs><path fill="#1e3a8a" d="M 223.222656 159.035156 C 209.167969 159.460938 195.980469 162.984375 185.957031 171.171875 C 175.933594 162.984375 162.746094 159.460938 148.691406 159.035156 L 148.691406 131.910156 L 185.335938 141.730469 C 185.742188 141.835938 186.171875 141.835938 186.566406 141.730469 L 223.222656 131.910156 Z M 266.210938 132.367188 C 266.210938 131.027344 265.289062 129.910156 264.058594 129.589844 L 264.058594 120.886719 C 265.949219 119.972656 265.824219 117.070312 263.628906 116.488281 L 186.566406 95.828125 C 186.171875 95.722656 185.742188 95.722656 185.335938 95.828125 L 108.285156 116.488281 C 105.933594 117.109375 105.933594 120.449219 108.285156 121.078125 L 138.066406 129.058594 L 138.066406 170.28125 C 140.839844 169.84375 143.714844 169.621094 146.636719 169.621094 C 163.101562 169.621094 177.574219 175.433594 185.898438 186.234375 L 185.957031 186.265625 L 186.015625 186.234375 C 194.339844 175.433594 208.8125 169.621094 225.277344 169.621094 C 228.199219 169.621094 231.074219 169.84375 233.847656 170.28125 L 233.847656 129.058594 L 262.632812 121.339844 L 262.632812 129.589844 C 261.390625 129.910156 260.476562 131.027344 260.476562 132.367188 C 260.476562 133.375 260.992188 134.25 261.777344 134.761719 C 260.882812 138.101562 258.429688 147.929688 258.429688 156.121094 C 258.429688 156.121094 259.449219 157.761719 263.328125 157.976562 C 267.230469 157.761719 268.257812 156.121094 268.257812 156.121094 C 268.257812 147.929688 265.804688 138.101562 264.882812 134.761719 C 265.679688 134.25 266.210938 133.375 266.210938 132.367188 " fill-opacity="1" fill-rule="nonzero"/><g clip-path="url(#1391739a25)"><path fill="#1e3a8a" d="M 290.570312 211.425781 L 213.816406 211.425781 C 213.585938 217.890625 208.140625 223.140625 201.53125 223.140625 L 173.660156 223.140625 C 167.023438 223.140625 161.667969 217.890625 161.386719 211.425781 L 84.195312 211.425781 L 84.195312 70.589844 L 290.570312 70.589844 Z M 310.335938 211.679688 C 310.484375 210.574219 310.5625 209.4375 310.5625 208.273438 L 310.5625 73.847656 C 310.5625 61.3125 301.089844 51.128906 289.328125 51.128906 L 85.371094 51.128906 C 73.675781 51.128906 64.214844 61.3125 64.214844 73.847656 L 64.214844 208.273438 C 64.214844 209.4375 64.273438 210.574219 64.382812 211.679688 L 34.230469 211.679688 L 34.230469 215.222656 C 34.230469 227.867188 43.699219 237.9375 55.386719 237.9375 L 319.363281 237.9375 C 331.046875 237.9375 340.519531 227.867188 340.519531 215.222656 L 340.519531 211.679688 L 310.335938 211.679688 " fill-opacity="1" fill-rule="nonzero"/></g><g fill="#1e3a8a" fill-opacity="1"><g transform="translate(110.278904, 300.525038)"><g><path d="M 13.125 -45.5 C 16.726562 -45.5 19.40625 -44.546875 21.15625 -42.640625 C 22.914062 -40.734375 23.796875 -37.9375 23.796875 -34.25 L 23.796875 -28.34375 C 23.796875 -24.65625 22.914062 -21.859375 21.15625 -19.953125 C 19.40625 -18.046875 16.726562 -17.09375 13.125 -17.09375 L 9.75 -17.09375 L 9.75 0 L 2.59375 0 L 2.59375 -45.5 Z M 9.75 -39 L 9.75 -23.59375 L 13.125 -23.59375 C 14.25 -23.59375 15.113281 -23.894531 15.71875 -24.5 C 16.332031 -25.113281 16.640625 -26.242188 16.640625 -27.890625 L 16.640625 -34.703125 C 16.640625 -36.359375 16.332031 -37.488281 15.71875 -38.09375 C 15.113281 -38.695312 14.25 -39 13.125 -39 Z M 9.75 -39 "/></g></g></g><g fill="#1e3a8a" fill-opacity="1"><g transform="translate(136.405944, 300.525038)"><g><path d="M 2.59375 -45.5 L 9.75 -45.5 L 9.75 -6.5 L 21.515625 -6.5 L 21.515625 0 L 2.59375 0 Z M 2.59375 -45.5 "/></g></g></g><g fill="#1e3a8a" fill-opacity="1"><g transform="translate(159.738314, 300.525038)"><g><path d="M 25.734375 0 L 18.53125 0 L 17.296875 -8.25 L 8.515625 -8.25 L 7.28125 0 L 0.71875 0 L 8 -45.5 L 18.453125 -45.5 Z M 9.421875 -14.4375 L 16.3125 -14.4375 L 12.875 -37.4375 Z M 9.421875 -14.4375 "/></g></g></g><g fill="#1e3a8a" fill-opacity="1"><g transform="translate(187.49016, 300.525038)"><g><path d="M 8.96875 -32.953125 L 8.96875 0 L 2.53125 0 L 2.53125 -45.5 L 11.5 -45.5 L 18.84375 -18.265625 L 18.84375 -45.5 L 25.21875 -45.5 L 25.21875 0 L 17.875 0 Z M 8.96875 -32.953125 "/></g></g></g><g fill="#1e3a8a" fill-opacity="1"><g transform="translate(216.541855, 300.525038)"><g/></g></g><g fill="#1e3a8a" fill-opacity="1"><g transform="translate(227.915657, 300.525038)"><g><path d="M 2.59375 -45.5 L 9.75 -45.5 L 9.75 0 L 2.59375 0 Z M 2.59375 -45.5 "/></g></g></g><g fill="#1e3a8a" fill-opacity="1"><g transform="translate(241.564189, 300.525038)"><g><path d="M 0.515625 -45.5 L 22.625 -45.5 L 22.625 -39 L 15.140625 -39 L 15.140625 0 L 8 0 L 8 -39 L 0.515625 -39 Z M 0.515625 -45.5 "/></g></g></g></svg>